<?xml version="1.0" encoding="UTF-8" standalone="no"?>
<!-- Created with Inkscape (http://www.inkscape.org/) -->

<svg
   width="512"
   height="512"
   viewBox="0 0 512 512"
   version="1.1"
   id="svg1"
   inkscape:version="1.3.2 (091e20e, 2023-11-25, custom)"
   sodipodi:docname="logo.svg"
   xmlns:inkscape="http://www.inkscape.org/namespaces/inkscape"
   xmlns:sodipodi="http://sodipodi.sourceforge.net/DTD/sodipodi-0.dtd"
   xmlns="http://www.w3.org/2000/svg"
   xmlns:svg="http://www.w3.org/2000/svg">
  <sodipodi:namedview
     id="namedview1"
     pagecolor="#ffffff"
     bordercolor="#000000"
     borderopacity="0.25"
     inkscape:showpageshadow="2"
     inkscape:pageopacity="0.0"
     inkscape:pagecheckerboard="0"
     inkscape:deskcolor="#d1d1d1"
     inkscape:document-units="px"
     inkscape:zoom="2.2910156"
     inkscape:cx="255.78176"
     inkscape:cy="294.41091"
     inkscape:window-width="2560"
     inkscape:window-height="1369"
     inkscape:window-x="-8"
     inkscape:window-y="-8"
     inkscape:window-maximized="1"
     inkscape:current-layer="layer1" />
  <defs
     id="defs1" />
  <g
     inkscape:label="Layer 1"
     inkscape:groupmode="layer"
     id="layer1">
    <circle
       style="fill:#ffffff;fill-opacity:1;stroke:#ff0000;stroke-width:29.5002;stroke-dasharray:none;stroke-opacity:1"
       id="path1"
       cx="256"
       cy="255.99998"
       inkscape:label="Circle"
       r="241.24991" />
    <path
       d="m 403.48237,338.09186 q 0,22.3536 -10.53446,44.19333 -10.27752,21.83973 -29.03399,36.99907 -20.55504,16.44403 -48.0474,25.6938 -27.23543,9.24976 -65.77613,9.24976 -41.36701,0 -74.51201,-7.70814 -32.88806,-7.70814 -67.06082,-22.86748 v -63.72062 h 3.59714 q 29.03399,24.15217 67.06081,37.25601 38.02682,13.10384 71.42876,13.10384 47.27659,0 73.48426,-17.72872 26.46461,-17.72872 26.46461,-47.27659 0,-25.43686 -12.58996,-37.51295 -12.33302,-12.07608 -37.76988,-18.75647 -19.27035,-5.13876 -41.88089,-8.47895 -22.35361,-3.3402 -47.53353,-8.47896 -50.87372,-10.79139 -75.53977,-36.74213 -24.4091,-26.20767 -24.4091,-68.08856 0,-48.0474 40.5962,-78.623024 40.5962,-30.832558 103.03213,-30.832558 40.33926,0 73.99814,7.70814 33.65887,7.708139 59.60961,19.01341 v 60.123492 h -3.59713 q -21.83973,-18.49954 -57.55411,-30.57562 -35.45744,-12.33303 -72.71345,-12.33303 -40.85314,0 -65.77612,16.95791 -24.66605,16.95791 -24.66605,43.67946 0,23.89523 12.33302,37.51294 12.33303,13.61771 43.42252,20.81198 16.44403,3.59713 46.76271,8.73589 30.31869,5.13876 51.3876,10.53446 42.65171,11.30527 64.2345,34.17275 21.58279,22.86748 21.58279,63.97756 z"
       id="text2"
       style="font-size:526.209px;stroke:#000000;stroke-width:1.43512"
       aria-label="S" />
    <rect
       style="fill:#b5acac;fill-opacity:0.0975104;stroke:#ff0000;stroke-width:20.3888;stroke-dasharray:none;stroke-opacity:1"
       id="rect2"
       width="469.61118"
       height="9.6112156"
       x="-596.84424"
       y="-4.8056154"
       transform="rotate(-135)"
       inkscape:label="Line" />
  </g>
</svg>
